# This file uses centimeters as units for non-parametric coordinates.

mtllib station_pillar.mtl
g default
v -1.354772 0.072677 1.039953
v 1.354772 0.072677 1.039953
v -1.488770 2.213213 1.193569
v 1.488770 2.213213 1.193569
v -1.550279 2.297912 1.242882
v 1.550279 2.297912 1.242882
v -1.574186 2.393377 1.262048
v 1.574186 2.393377 1.262048
v -1.550279 2.482485 1.242882
v 1.550279 2.482485 1.242882
v -1.488770 2.545633 1.193569
v 1.488770 2.545633 1.193569
v -1.488770 2.545633 -1.193569
v 1.488770 2.545633 -1.193569
v -1.550279 2.482485 -1.242882
v 1.550279 2.482485 -1.242882
v -1.574186 2.393377 -1.262048
v 1.574186 2.393377 -1.262048
v -1.550279 2.297912 -1.242882
v 1.550279 2.297912 -1.242882
v -1.488770 2.213213 -1.193569
v 1.488770 2.213213 -1.193569
v -1.354772 0.072677 -1.039953
v 1.354772 0.072677 -1.039953
v -1.354772 2.198130 1.039953
v 1.354772 2.198130 1.039953
v 1.354772 2.198131 -1.039953
v -1.354772 2.198131 -1.039953
vt 0.328941 0.617953
vt 0.624701 0.617917
vt 0.066349 0.638901
vt 0.639361 0.886767
vt 0.054407 0.645616
vt 0.899243 0.645512
vt 0.042972 0.648227
vt 0.910678 0.648120
vt 0.032258 0.645619
vt 0.921391 0.645509
vt 0.660851 0.658794
vt 0.931356 0.638794
vt 0.314241 0.021863
vt 0.931316 0.313780
vt 0.032216 0.307178
vt 0.921350 0.307067
vt 0.042930 0.304567
vt 0.910635 0.304459
vt 0.054365 0.307175
vt 0.899201 0.307070
vt 0.066309 0.313887
vt 0.887259 0.313786
vt 0.328906 0.334770
vt 0.624666 0.334733
vt 0.081078 0.617984
vt 0.872564 0.617886
vt 0.624636 0.086870
vt 0.081043 0.334801
vt 0.624732 0.865779
vt 0.887299 0.638799
vt 0.328972 0.865816
vt 0.314348 0.886807
vt 0.646080 0.920857
vt 0.639367 0.930824
vt 0.307638 0.920899
vt 0.314353 0.930864
vt 0.648688 0.910143
vt 0.305027 0.910186
vt 0.646077 0.898709
vt 0.307635 0.898751
vt 0.328875 0.086907
vt 0.314246 0.065920
vt 0.307531 0.053978
vt 0.304920 0.042543
vt 0.307528 0.031829
vt 0.022251 0.313893
vt 0.022292 0.638906
vt 0.872529 0.334703
vt 0.639260 0.065880
vt 0.645972 0.053936
vt 0.648581 0.042501
vt 0.645970 0.031787
vt 0.987066 0.982601
vt 0.985862 0.657590
vt 0.662055 0.983805
vt 0.639254 0.021823
vn 0.000000 -0.995214 0.097716
vn 0.000000 -0.995214 0.097716
vn 0.000000 -0.995214 0.097716
vn 0.000000 -0.995214 0.097716
vn 0.000000 -0.312880 0.949793
vn 0.000000 -0.503151 0.864198
vn 0.000000 -0.503151 0.864198
vn 0.000000 -0.312880 0.949793
vn 0.000000 -0.001127 0.999999
vn 0.000000 -0.001127 0.999999
vn 0.000000 0.345893 0.938274
vn 0.000000 0.345893 0.938274
vn 0.000000 0.615481 0.788152
vn 0.000000 0.615481 0.788152
vn 0.000000 1.000000 0.000000
vn 0.000000 1.000000 0.000000
vn 0.000000 1.000000 0.000000
vn 0.000000 1.000000 0.000000
vn 0.000000 0.345893 -0.938274
vn 0.000000 0.615480 -0.788153
vn 0.000000 0.615480 -0.788153
vn 0.000000 0.345893 -0.938274
vn 0.000000 -0.001127 -0.999999
vn 0.000000 -0.001127 -0.999999
vn 0.000000 -0.312880 -0.949793
vn 0.000000 -0.312880 -0.949793
vn 0.000000 -0.503151 -0.864198
vn 0.000000 -0.503151 -0.864198
vn 0.000000 -0.995215 -0.097712
vn 0.000000 -0.995215 -0.097712
vn 0.000000 -0.995215 -0.097712
vn 0.000000 -0.995215 -0.097712
vn 0.000000 -1.000000 0.000000
vn 0.000000 -1.000000 0.000000
vn 0.000000 -1.000000 0.000000
vn 0.000000 -1.000000 0.000000
vn 0.111851 -0.993725 -0.000000
vn 0.111851 -0.993725 -0.000000
vn 0.111851 -0.993725 -0.000000
vn 0.111851 -0.993725 -0.000000
vn 0.809143 -0.587611 0.000000
vn 0.809143 -0.587611 0.000000
vn 0.924961 -0.380061 0.000000
vn 0.924961 -0.380061 0.000000
vn 0.999999 -0.001406 0.000000
vn 0.999999 -0.001406 0.000000
vn 0.908551 0.417774 0.000000
vn 0.908551 0.417774 0.000000
vn 0.716338 0.697753 0.000000
vn 0.716338 0.697753 0.000000
vn -0.111851 -0.993725 -0.000000
vn -0.111851 -0.993725 -0.000000
vn -0.111851 -0.993725 -0.000000
vn -0.111851 -0.993725 -0.000000
vn -0.809143 -0.587611 0.000000
vn -0.809143 -0.587611 0.000000
vn -0.924961 -0.380061 0.000000
vn -0.924961 -0.380061 0.000000
vn -0.999999 -0.001406 0.000000
vn -0.999999 -0.001406 0.000000
vn -0.908551 0.417774 0.000000
vn -0.908551 0.417774 0.000000
vn -0.716338 0.697753 0.000000
vn -0.716338 0.697753 0.000000
vn 0.000000 0.000000 1.000000
vn 0.000000 0.000000 1.000000
vn 0.000000 0.000000 1.000000
vn 0.000000 0.000000 1.000000
vn 1.000000 0.000000 0.000000
vn 1.000000 0.000000 0.000000
vn 1.000000 0.000000 0.000000
vn 1.000000 0.000000 0.000000
vn 0.000000 0.000000 -1.000000
vn 0.000000 0.000000 -1.000000
vn 0.000000 0.000000 -1.000000
vn 0.000000 0.000000 -1.000000
vn -1.000000 0.000000 0.000000
vn -1.000000 0.000000 0.000000
vn -1.000000 0.000000 0.000000
vn -1.000000 0.000000 0.000000
s off
g pasted__pCube10 group
usemtl initialShadingGroup
f 4/4/1 3/32/2 25/31/3 26/29/4
s 1
f 5/40/5 3/32/6 4/4/7 6/39/8
f 7/38/9 5/40/5 6/39/8 8/37/10
f 9/35/11 7/38/9 8/37/10 10/33/12
f 11/36/13 9/35/11 10/33/12 12/34/14
s off
f 13/55/15 11/11/16 12/54/17 14/53/18
s 2
f 15/45/19 13/13/20 14/56/21 16/52/22
f 17/44/23 15/45/19 16/52/22 18/51/24
f 19/43/25 17/44/23 18/51/24 20/50/26
f 21/42/27 19/43/25 20/50/26 22/49/28
s off
f 27/27/29 28/41/30 21/42/31 22/49/32
f 2/2/33 1/1/34 23/23/35 24/24/36
f 26/26/37 27/48/38 22/22/39 4/30/40
s 3
f 4/30/41 22/22/42 20/20/43 6/6/44
f 6/6/44 20/20/43 18/18/45 8/8/46
f 8/8/46 18/18/45 16/16/47 10/10/48
f 10/10/48 16/16/47 14/14/49 12/12/50
s off
f 28/28/51 25/25/52 3/3/53 21/21/54
s 4
f 21/21/55 3/3/56 5/5/57 19/19/58
f 19/19/58 5/5/57 7/7/59 17/17/60
f 17/17/60 7/7/59 9/9/61 15/15/62
f 15/15/62 9/9/61 11/47/63 13/46/64
s off
f 25/31/65 1/1/66 2/2/67 26/29/68
f 2/2/69 24/24/70 27/48/71 26/26/72
f 24/24/73 23/23/74 28/41/75 27/27/76
f 23/23/77 1/1/78 25/25/79 28/28/80
